<?xml version="1.0" encoding="UTF-8" standalone="no"?>
<svg
   xmlns:dc="http://purl.org/dc/elements/1.1/"
   xmlns:cc="http://creativecommons.org/ns#"
   xmlns:rdf="http://www.w3.org/1999/02/22-rdf-syntax-ns#"
   xmlns:svg="http://www.w3.org/2000/svg"
   xmlns="http://www.w3.org/2000/svg"
   xmlns:sodipodi="http://sodipodi.sourceforge.net/DTD/sodipodi-0.dtd"
   xmlns:inkscape="http://www.inkscape.org/namespaces/inkscape"
   width="600"
   height="826"
   id="svg2"
   version="1.1"
   inkscape:version="0.91 r13725"
   sodipodi:docname="Logo.svg"
   inkscape:export-filename="C:\Users\Reed-Laptop\ownCloud\Logo.png"
   inkscape:export-xdpi="20"
   inkscape:export-ydpi="20">
  <metadata
     id="metadata50">
    <rdf:RDF>
      <cc:Work
         rdf:about="">
        <dc:format>image/svg+xml</dc:format>
        <dc:type
           rdf:resource="http://purl.org/dc/dcmitype/StillImage" />
      </cc:Work>
    </rdf:RDF>
  </metadata>
  <defs
     id="defs48" />
  <sodipodi:namedview
     pagecolor="#ffffff"
     bordercolor="#666666"
     borderopacity="1"
     objecttolerance="10"
     gridtolerance="10"
     guidetolerance="10"
     inkscape:pageopacity="0"
     inkscape:pageshadow="2"
     inkscape:window-width="1366"
     inkscape:window-height="715"
     id="namedview46"
     showgrid="false"
     inkscape:zoom="1"
     inkscape:cx="178.85783"
     inkscape:cy="459.20764"
     inkscape:window-x="-8"
     inkscape:window-y="-8"
     inkscape:window-maximized="1"
     inkscape:current-layer="svg2" />
  <path
     style="fill:#414141; stroke:none;"
     d="M165 185L165 204L218 204L218 185L165 185M222 185L222 204L283 204L283 185L222 185M287 185L287 204L340 204L340 185L287 185M344 185L344 204L380 204L380 185L344 185M384 185L384 204L429 204L429 185L384 185M165 208L165 232L218 232L218 208L165 208M222 208L222 232L283 232L283 208L222 208M384 208L384 232L429 232L429 208L384 208z"
     id="path8"
     inkscape:export-xdpi="20.299999"
     inkscape:export-ydpi="20.299999" />
  <path
     style="fill:#414141; stroke:none;"
     d="M165 236L165 292L200 292L200 236L165 236M416 236L416 362L429 362L429 236L416 236M384 238L384 362L412 362L412 238L384 238M165 296L165 350L200 350L200 296L165 296M204 296L204 350L218 350L218 296L204 296M222 296L222 350L262 350L262 318L282 318L282 296L222 296z"
     id="path12"
     inkscape:export-xdpi="20.299999"
     inkscape:export-ydpi="20.299999" />
  <path
     style="fill:#ffffff; stroke:none;"
     d="M368 305L369 306L368 305z"
     id="path14"
     inkscape:export-xdpi="20.299999"
     inkscape:export-ydpi="20.299999" />
  <path
     style="fill:#4f4fff; stroke:none;"
     d="M344 319L344 322L360 322L360 319L344 319z"
     id="path16"
     inkscape:export-xdpi="20.299999"
     inkscape:export-ydpi="20.299999" />
  <path
     style="fill:#414141; stroke:none;"
     d="M267 322L267 350L282 350L282 322L267 322z"
     id="path18"
     inkscape:export-xdpi="20.299999"
     inkscape:export-ydpi="20.299999" />
  <path
     style="fill:#3535ff;stroke:none"
     d="m 344,319 0,31 16,0 0,-31 -16,0 z"
     id="path20"
     inkscape:connector-curvature="0"
     inkscape:export-xdpi="20.299999"
     inkscape:export-ydpi="20.299999" />
  <path
     style="fill:#414141; stroke:none;"
     d="M165 354L165 380L200 380L200 354L165 354M204 354L204 380L218 380L218 354L204 354M222 354L222 380L262 380L262 354L222 354M267 354L267 380L282 380L282 354L267 354z"
     id="path22"
     inkscape:export-xdpi="20.299999"
     inkscape:export-ydpi="20.299999" />
  <path
     style="fill:#3535ff; stroke:none;"
     d="M344 354L344 362L360 362L360 354L344 354M324 366L324 380L340 380L340 366L324 366M344 366L344 380L360 380L360 366L344 366z"
     id="path24"
     inkscape:export-xdpi="20.299999"
     inkscape:export-ydpi="20.299999" />
  <path
     style="fill:#414141; stroke:none;"
     d="M384 366L384 380L412 380L412 366L384 366M416 366L416 380L429 380L429 366L416 366z"
     id="path26"
     inkscape:export-xdpi="20.299999"
     inkscape:export-ydpi="20.299999" />
  <path
     style="fill:#7f7f7f; stroke:none;"
     d="M204 388L204 430L262 430L262 388L204 388M266 388L266 408L284 408L284 388L266 388z"
     id="path28"
     inkscape:export-xdpi="20.299999"
     inkscape:export-ydpi="20.299999" />
  <path
     style="fill:#3535ff; stroke:none;"
     d="M324 388L324 408L340 408L340 388L324 388z"
     id="path30"
     inkscape:export-xdpi="20.299999"
     inkscape:export-ydpi="20.299999" />
  <path
     style="fill:#7f7f7f; stroke:none;"
     d="M384 388L384 408L412 408L412 388L384 388M416 388L416 408L429 408L429 388L416 388M266 412L266 430L284 430L284 412L266 412z"
     id="path32"
     inkscape:export-xdpi="20.299999"
     inkscape:export-ydpi="20.299999" />
  <path
     style="fill:#3535ff; stroke:none;"
     d="M324 412L324 430L340 430L340 412L324 412z"
     id="path34"
     inkscape:export-xdpi="20.299999"
     inkscape:export-ydpi="20.299999" />
  <path
     style="fill:#7f7f7f; stroke:none;"
     d="M384 412L384 440L393 440L393 468L412 468L412 412L384 412M416 412L416 468L429 468L429 412L416 412M266 434L266 467L304 467L304 444L284 444L284 434L266 434z"
     id="path36"
     inkscape:export-xdpi="20.299999"
     inkscape:export-ydpi="20.299999" />
  <path
     style="fill:#7f7f7f; stroke:none;"
     d="M384 444L384 468L388 468L388 444L384 444M266 472L266 511L304 511L304 472L266 472M384 472L384 494L388 494L388 472L384 472M393 472L393 494L412 494L412 472L393 472M416 472L416 494L429 494L429 472L416 472M384 498L384 567L388 567L388 498L384 498M393 498L393 572L384 572L384 602L412 602L412 498L393 498M416 498L416 602L429 602L429 498L416 498M307 514L307 568L320 568L320 514L307 514M324 572L324 602L352 602L352 572L324 572M356 572L356 602L380 602L380 572L356 572z"
     id="path40"
     inkscape:export-xdpi="20.299999"
     inkscape:export-ydpi="20.299999" />
  <path
     style="fill:#3535ff; stroke:none;"
     d="M430 588L431 589L430 588z"
     id="path42"
     inkscape:export-xdpi="20.299999"
     inkscape:export-ydpi="20.299999" />
  <path
     style="fill:#7f7f7f; stroke:none;"
     d="M356 606L356 632L429 632L429 606L356 606z"
     id="path44"
     inkscape:export-xdpi="20.299999"
     inkscape:export-ydpi="20.299999" />
</svg>
